<?xml version="1.0" encoding="UTF-8" standalone="no"?>
<!-- Created with Inkscape (http://www.inkscape.org/) -->

<svg
   xmlns:dc="http://purl.org/dc/elements/1.1/"
   xmlns:cc="http://creativecommons.org/ns#"
   xmlns:rdf="http://www.w3.org/1999/02/22-rdf-syntax-ns#"
   xmlns:svg="http://www.w3.org/2000/svg"
   xmlns="http://www.w3.org/2000/svg"
   xmlns:sodipodi="http://sodipodi.sourceforge.net/DTD/sodipodi-0.dtd"
   xmlns:inkscape="http://www.inkscape.org/namespaces/inkscape"
   width="170mm"
   height="105mm"
   viewBox="0 0 170 105"
   version="1.1"
   id="svg8"
   inkscape:version="0.92.3 (2405546, 2018-03-11)"
   sodipodi:docname="drawing.svg">
  <defs
     id="defs2" />
  <sodipodi:namedview
     id="base"
     pagecolor="#ffffff"
     bordercolor="#666666"
     borderopacity="1.0"
     inkscape:pageopacity="0.0"
     inkscape:pageshadow="2"
     inkscape:zoom="0.98994949"
     inkscape:cx="112.69147"
     inkscape:cy="175.03182"
     inkscape:document-units="mm"
     inkscape:current-layer="layer1"
     showgrid="false"
     inkscape:window-width="1920"
     inkscape:window-height="1017"
     inkscape:window-x="-8"
     inkscape:window-y="-8"
     inkscape:window-maximized="1" />
  <metadata
     id="metadata5">
    <rdf:RDF>
      <cc:Work
         rdf:about="">
        <dc:format>image/svg+xml</dc:format>
        <dc:type
           rdf:resource="http://purl.org/dc/dcmitype/StillImage" />
        <dc:title></dc:title>
      </cc:Work>
    </rdf:RDF>
  </metadata>
  <g
     inkscape:label="Layer 1"
     inkscape:groupmode="layer"
     id="layer1"
     transform="translate(0,-192)">
    <g
       id="g6882"
       transform="matrix(-0.00254,0,0,0.00254,223.63807,133.22414)">
      <g
         id="g4522"
         style="fill:#000000;fill-opacity:1;stroke:#000000;stroke-linecap:round;stroke-linejoin:round;stroke-opacity:1" />
      <g
         id="g4524"
         style="fill:#000000;fill-opacity:0;stroke:#000000;stroke-width:-0.0003937;stroke-linecap:round;stroke-linejoin:round;stroke-opacity:1" />
      <g
         id="g4558"
         style="fill:#000000;fill-opacity:0;stroke:#000000;stroke-width:118.11000061;stroke-linecap:round;stroke-linejoin:round;stroke-opacity:1">
        <path
           id="path4550"
           d="M 42850,41050 H 41550"
           inkscape:connector-curvature="0" />
        <path
           id="path4552"
           d="M 42850,43050 V 41050"
           inkscape:connector-curvature="0" />
        <path
           id="path4554"
           d="m 41550,43050 h 1300"
           inkscape:connector-curvature="0" />
        <path
           id="path4556"
           d="m 41550,41050 v 2000"
           inkscape:connector-curvature="0" />
      </g>
      <g
         id="g4610"
         style="fill:#000000;fill-opacity:0;stroke:#000000;stroke-width:120;stroke-linecap:round;stroke-linejoin:round;stroke-opacity:1">
        <path
           id="path4560"
           d="m 46535,41161 h -115 l -57,29 -57,57 -28,114 v 200 l 28,114 57,57 57,29 h 115 l 57,-29 57,-57 29,-114 v -200 l -29,-114 -57,-57 -57,-29"
           inkscape:connector-curvature="0" />
        <path
           id="path4562"
           d="m 46020,41361 v 400"
           inkscape:connector-curvature="0" />
        <path
           id="path4564"
           d="m 46020,41418 -28,-28 -57,-29 h -86 l -57,29 -29,57 v 314"
           inkscape:connector-curvature="0" />
        <path
           id="path4566"
           d="m 45478,41761 v -600"
           inkscape:connector-curvature="0" />
        <path
           id="path4568"
           d="m 45478,41390 -58,-29 h -114 l -57,29 -29,28 -28,57 v 172 l 28,57 29,28 57,29 h 114 l 58,-29"
           inkscape:connector-curvature="0" />
        <path
           id="path4570"
           d="m 44849,41761 57,-29 29,-28 28,-57 v -172 l -28,-57 -29,-28 -57,-29 h -86 l -57,29 -28,28 -29,57 v 172 l 29,57 28,28 57,29 h 86"
           inkscape:connector-curvature="0" />
        <path
           id="path4572"
           d="m 44135,41761 v -314 l 28,-57 57,-29 h 115 l 57,29"
           inkscape:connector-curvature="0" />
        <path
           id="path4574"
           d="m 44135,41732 57,29 h 143 l 57,-29 28,-57 v -57 l -28,-57 -57,-29 h -143 l -57,-28"
           inkscape:connector-curvature="0" />
        <path
           id="path4576"
           d="m 43849,41761 v -400"
           inkscape:connector-curvature="0" />
        <path
           id="path4578"
           d="m 43849,41475 -29,-57 -28,-28 -57,-29 h -57"
           inkscape:connector-curvature="0" />
        <path
           id="path4580"
           d="m 43220,41761 v -600"
           inkscape:connector-curvature="0" />
        <path
           id="path4582"
           d="m 43220,41732 58,29 h 114 l 57,-29 29,-28 28,-57 v -172 l -28,-57 -29,-28 -57,-29 h -114 l -58,29"
           inkscape:connector-curvature="0" />
        <path
           id="path4584"
           d="m 47106,42781 v -600 h -143 l -85,29 -58,57 -28,57 -29,114 v 86 l 29,114 28,57 58,57 85,29 h 143"
           inkscape:connector-curvature="0" />
        <path
           id="path4586"
           d="m 46278,42752 57,29 h 114 l 57,-29 29,-57 v -228 l -29,-57 -57,-29 h -114 l -57,29 -29,57 v 57 l 286,57"
           inkscape:connector-curvature="0" />
        <path
           id="path4588"
           d="m 45992,42781 v -600"
           inkscape:connector-curvature="0" />
        <path
           id="path4590"
           d="m 45992,42410 -57,-29 h -115 l -57,29 -28,28 -29,57 v 172 l 29,57 28,28 57,29 h 115 l 57,-29"
           inkscape:connector-curvature="0" />
        <path
           id="path4592"
           d="m 45192,42381 v 400"
           inkscape:connector-curvature="0" />
        <path
           id="path4594"
           d="m 45449,42381 v 314 l -29,57 -57,29 h -85 l -58,-29 -28,-28"
           inkscape:connector-curvature="0" />
        <path
           id="path4596"
           d="m 44649,42381 v 486 l 29,57 28,28 57,29 h 86 l 57,-29"
           inkscape:connector-curvature="0" />
        <path
           id="path4598"
           d="m 44649,42752 57,29 h 114 l 58,-29 28,-28 29,-57 v -172 l -29,-57 -28,-28 -58,-29 h -114 l -57,29"
           inkscape:connector-curvature="0" />
        <path
           id="path4600"
           d="m 44106,42381 v 486 l 29,57 28,28 57,29 h 86 l 57,-29"
           inkscape:connector-curvature="0" />
        <path
           id="path4602"
           d="m 44106,42752 57,29 h 115 l 57,-29 28,-28 29,-57 v -172 l -29,-57 -28,-28 -57,-29 h -115 l -57,29"
           inkscape:connector-curvature="0" />
        <path
           id="path4604"
           d="m 43592,42752 57,29 h 114 l 57,-29 29,-57 v -228 l -29,-57 -57,-29 h -114 l -57,29 -29,57 v 57 l 286,57"
           inkscape:connector-curvature="0" />
        <path
           id="path4606"
           d="m 43306,42781 v -400"
           inkscape:connector-curvature="0" />
        <path
           id="path4608"
           d="m 43306,42495 -28,-57 -29,-28 -57,-29 h -57"
           inkscape:connector-curvature="0" />
      </g>
      <g
         id="g4776"
         style="fill:#000000;fill-opacity:0;stroke:#000000;stroke-width:78.74019623;stroke-linecap:round;stroke-linejoin:round;stroke-opacity:1">
        <path
           id="path4638"
           d="m 77172,53913 45,-22 h 67 l 68,22 45,45 22,45 23,90 v 68 l -23,90 -22,45 -45,45 -68,22 h -45 l -67,-22 -23,-23 v -157 h 90"
           inkscape:connector-curvature="0" />
        <path
           id="path4640"
           d="m 76947,54363 v -472 h -180 l -45,22 -22,23 -23,45 v 67 l 23,45 22,23 45,22 h 180"
           inkscape:connector-curvature="0" />
        <path
           id="path4642"
           d="m 76475,54363 v -472"
           inkscape:connector-curvature="0" />
        <path
           id="path4644"
           d="m 76160,53891 h -90 l -45,22 -45,45 -23,90 v 158 l 23,90 45,45 45,22 h 90 l 45,-22 45,-45 22,-90 v -158 l -22,-90 -45,-45 -45,-22"
           inkscape:connector-curvature="0" />
        <path
           id="path4646"
           d="m 79609,56966 23,45 v 67 l -23,68 -45,45 -45,22 -90,23 h -67 l -90,-23 -45,-22 -45,-45 -23,-68 v -45 l 23,-67 22,-23 h 158 v 90"
           inkscape:connector-curvature="0" />
        <path
           id="path4648"
           d="m 79159,56741 h 473 l -473,-270 h 473"
           inkscape:connector-curvature="0" />
        <path
           id="path4650"
           d="m 79159,56246 h 473 v -113 l -23,-67 -45,-45 -45,-23 -90,-22 h -67 l -90,22 -45,23 -45,45 -23,67 v 113"
           inkscape:connector-curvature="0" />
        <path
           id="path4698"
           d="m 85296,32035 v 360"
           inkscape:connector-curvature="0" />
        <path
           id="path4700"
           d="m 85476,32215 h -360"
           inkscape:connector-curvature="0" />
        <path
           id="path4702"
           d="m 85296,32979 v 360"
           inkscape:connector-curvature="0" />
        <path
           id="path4704"
           d="m 84978,34266 -67,22 -23,23 -22,45 v 67 l 22,45 23,23 45,22 h 180 v -472 h -158 l -45,22 -22,23 -23,45 v 45 l 23,45 22,22 45,23 h 158"
           inkscape:connector-curvature="0" />
        <path
           id="path4706"
           d="m 84686,34378 h -225"
           inkscape:connector-curvature="0" />
        <path
           id="path4708"
           d="m 84731,34513 -158,-472 -157,472"
           inkscape:connector-curvature="0" />
        <path
           id="path4710"
           d="m 84326,34041 h -270"
           inkscape:connector-curvature="0" />
        <path
           id="path4712"
           d="m 84191,34513 v -472"
           inkscape:connector-curvature="0" />
        <path
           id="path4714"
           d="m 83966,34041 h -270"
           inkscape:connector-curvature="0" />
        <path
           id="path4716"
           d="m 83831,34513 v -472"
           inkscape:connector-curvature="0" />
        <path
           id="path4718"
           d="m 77609,57641 23,45 v 67 l -23,68 -45,45 -45,22 -90,23 h -67 l -90,-23 -45,-22 -45,-45 -23,-68 v -45 l 23,-67 22,-23 h 158 v 90"
           inkscape:connector-curvature="0" />
        <path
           id="path4720"
           d="m 77159,57416 h 473 v -180 l -23,-45 -22,-23 -45,-22 h -68 l -45,22 -22,23 -23,45 v 180"
           inkscape:connector-curvature="0" />
        <path
           id="path4722"
           d="m 77159,56943 h 473"
           inkscape:connector-curvature="0" />
        <path
           id="path4724"
           d="m 77632,56628 v -90 l -23,-45 -45,-45 -90,-22 h -157 l -90,22 -45,45 -23,45 v 90 l 23,45 45,45 90,23 h 157 l 90,-23 45,-45 23,-45"
           inkscape:connector-curvature="0" />
        <path
           id="path4726"
           d="m 77159,55976 v 270"
           inkscape:connector-curvature="0" />
        <path
           id="path4728"
           d="m 77159,56111 h 473 l -68,45 -45,45 -22,45"
           inkscape:connector-curvature="0" />
        <path
           id="path4730"
           d="m 83802,56268 h -360"
           inkscape:connector-curvature="0" />
        <path
           id="path4732"
           d="m 83622,56448 v -360"
           inkscape:connector-curvature="0" />
        <path
           id="path4734"
           d="m 82857,56268 h -360"
           inkscape:connector-curvature="0" />
        <path
           id="path4736"
           d="m 83702,54301 -68,22 -22,23 -23,45 v 67 l 23,45 22,23 45,22 h 180 v -472 h -157 l -45,22 -23,23 -22,45 v 45 l 22,45 23,22 45,23 h 157"
           inkscape:connector-curvature="0" />
        <path
           id="path4738"
           d="m 83409,54413 h -225"
           inkscape:connector-curvature="0" />
        <path
           id="path4740"
           d="m 83454,54548 -157,-472 -158,472"
           inkscape:connector-curvature="0" />
        <path
           id="path4742"
           d="m 83049,54076 h -270"
           inkscape:connector-curvature="0" />
        <path
           id="path4744"
           d="m 82914,54548 v -472"
           inkscape:connector-curvature="0" />
        <path
           id="path4746"
           d="m 82689,54076 h -269"
           inkscape:connector-curvature="0" />
        <path
           id="path4748"
           d="m 82554,54548 v -472"
           inkscape:connector-curvature="0" />
        <path
           id="path4750"
           d="m 78609,57641 23,45 v 67 l -23,68 -45,45 -45,22 -90,23 h -67 l -90,-23 -45,-22 -45,-45 -23,-68 v -45 l 23,-67 22,-23 h 158 v 90"
           inkscape:connector-curvature="0" />
        <path
           id="path4752"
           d="m 78159,57416 h 473 v -180 l -23,-45 -22,-23 -45,-22 h -68 l -45,22 -22,23 -23,45 v 180"
           inkscape:connector-curvature="0" />
        <path
           id="path4754"
           d="m 78159,56943 h 473"
           inkscape:connector-curvature="0" />
        <path
           id="path4756"
           d="m 78632,56628 v -90 l -23,-45 -45,-45 -90,-22 h -157 l -90,22 -45,45 -23,45 v 90 l 23,45 45,45 90,23 h 157 l 90,-23 45,-45 23,-45"
           inkscape:connector-curvature="0" />
        <path
           id="path4758"
           d="m 78632,56133 v -45 l -23,-45 -22,-22 -45,-23 -90,-22 h -113 l -90,22 -45,23 -22,22 -23,45 v 45 l 23,45 22,23 45,22 90,23 h 113 l 90,-23 45,-22 22,-23 23,-45"
           inkscape:connector-curvature="0" />
        <path
           id="path4760"
           d="m 76609,57641 23,45 v 67 l -23,68 -45,45 -45,22 -90,23 h -67 l -90,-23 -45,-22 -45,-45 -23,-68 v -45 l 23,-67 22,-23 h 158 v 90"
           inkscape:connector-curvature="0" />
        <path
           id="path4762"
           d="m 76159,57416 h 473 v -180 l -23,-45 -22,-23 -45,-22 h -68 l -45,22 -22,23 -23,45 v 180"
           inkscape:connector-curvature="0" />
        <path
           id="path4764"
           d="m 76159,56943 h 473"
           inkscape:connector-curvature="0" />
        <path
           id="path4766"
           d="m 76632,56628 v -90 l -23,-45 -45,-45 -90,-22 h -157 l -90,22 -45,45 -23,45 v 90 l 23,45 45,45 90,23 h 157 l 90,-23 45,-45 23,-45"
           inkscape:connector-curvature="0" />
        <path
           id="path4768"
           d="m 76587,56246 22,-23 23,-45 v -112 l -23,-45 -22,-23 -45,-22 h -45 l -68,22 -270,270 v -292"
           inkscape:connector-curvature="0" />
        <path
           id="path4770"
           d="m 75632,57123 v -292 l -180,157 v -67 l -23,-45 -22,-23 -45,-22 h -113 l -45,22 -22,23 -23,45 v 135 l 23,45 22,22"
           inkscape:connector-curvature="0" />
        <path
           id="path4772"
           d="m 75632,56696 -473,-158 473,-157"
           inkscape:connector-curvature="0" />
        <path
           id="path4774"
           d="m 75632,56268 v -292 l -180,157 v -67 l -23,-45 -22,-23 -45,-22 h -113 l -45,22 -22,23 -23,45 v 135 l 23,45 22,22"
           inkscape:connector-curvature="0" />
      </g>
      <g
         id="g4898"
         style="fill:#000000;fill-opacity:0;stroke:#000000;stroke-width:47.24409866;stroke-linecap:round;stroke-linejoin:round;stroke-opacity:1">
        <path
           id="path4778"
           d="m 41924,42943 h 551"
           inkscape:connector-curvature="0" />
        <path
           id="path4780"
           d="m 42751,42668 v -237"
           inkscape:connector-curvature="0" />
        <path
           id="path4782"
           d="m 42475,42156 h -551"
           inkscape:connector-curvature="0" />
        <path
           id="path4784"
           d="m 41648,42431 v 237"
           inkscape:connector-curvature="0" />
        <path
           id="path4786"
           d="m 41648.8,42668.1 a 275.591,275.591 0 0 0 275.6,275.6"
           inkscape:connector-curvature="0" />
        <path
           id="path4788"
           d="m 41924.4,42156.3 a 275.591,275.591 0 0 0 -275.6,275.6"
           inkscape:connector-curvature="0" />
        <path
           id="path4790"
           d="m 42751.2,42431.9 a 275.591,275.591 0 0 0 -275.6,-275.6"
           inkscape:connector-curvature="0" />
        <path
           id="path4792"
           d="m 42475.6,42943.7 a 275.591,275.591 0 0 0 275.6,-275.6"
           inkscape:connector-curvature="0" />
        <path
           id="path4794"
           d="m 41924,41943 h 551"
           inkscape:connector-curvature="0" />
        <path
           id="path4796"
           d="m 42751,41668 v -237"
           inkscape:connector-curvature="0" />
        <path
           id="path4798"
           d="m 42475,41156 h -551"
           inkscape:connector-curvature="0" />
        <path
           id="path4800"
           d="m 41648,41431 v 237"
           inkscape:connector-curvature="0" />
        <path
           id="path4802"
           d="m 41648.8,41668.1 a 275.591,275.591 0 0 0 275.6,275.6"
           inkscape:connector-curvature="0" />
        <path
           id="path4804"
           d="m 41924.4,41156.3 a 275.591,275.591 0 0 0 -275.6,275.6"
           inkscape:connector-curvature="0" />
        <path
           id="path4806"
           d="m 42751.2,41431.9 a 275.591,275.591 0 0 0 -275.6,-275.6"
           inkscape:connector-curvature="0" />
        <path
           id="path4808"
           d="m 42475.6,41943.7 a 275.591,275.591 0 0 0 275.6,-275.6"
           inkscape:connector-curvature="0" />
        <path
           id="path4810"
           d="m 34036,25672 h 1057"
           inkscape:connector-curvature="0" />
        <path
           id="path4812"
           d="m 34036,26427 v -755"
           inkscape:connector-curvature="0" />
        <path
           id="path4814"
           d="M 35093,26427 H 34036"
           inkscape:connector-curvature="0" />
        <path
           id="path4816"
           d="m 28436,25672 h 1057"
           inkscape:connector-curvature="0" />
        <path
           id="path4818"
           d="m 28436,26427 v -755"
           inkscape:connector-curvature="0" />
        <path
           id="path4820"
           d="M 29493,26427 H 28436"
           inkscape:connector-curvature="0" />
        <path
           id="path4850"
           d="m 84375,31845 h -418"
           inkscape:connector-curvature="0" />
        <path
           id="path4852"
           d="m 83957,31845 v 417"
           inkscape:connector-curvature="0" />
        <path
           id="path4854"
           d="m 83957,32656 v 811"
           inkscape:connector-curvature="0" />
        <path
           id="path4856"
           d="m 84792,33467 h -835"
           inkscape:connector-curvature="0" />
        <path
           id="path4858"
           d="m 84792,32656 v 811"
           inkscape:connector-curvature="0" />
        <path
           id="path4860"
           d="m 84792,32656 h -835"
           inkscape:connector-curvature="0" />
        <path
           id="path4862"
           d="m 35732,47195 h 985"
           inkscape:connector-curvature="0" />
        <path
           id="path4864"
           d="m 35142,46506 v -788"
           inkscape:connector-curvature="0" />
        <path
           id="path4866"
           d="m 35732,45029 h 985"
           inkscape:connector-curvature="0" />
        <path
           id="path4868"
           d="m 37307,46506 v -788"
           inkscape:connector-curvature="0" />
        <path
           id="path4870"
           d="m 35555,47018 177,177"
           inkscape:connector-curvature="0" />
        <path
           id="path4872"
           d="m 36894,47018 -177,177"
           inkscape:connector-curvature="0" />
        <path
           id="path4874"
           d="m 36894,45206 -177,-177"
           inkscape:connector-curvature="0" />
        <path
           id="path4876"
           d="m 35555,45206 177,-177"
           inkscape:connector-curvature="0" />
        <path
           id="path4878"
           d="m 36728,42659 h -984"
           inkscape:connector-curvature="0" />
        <path
           id="path4880"
           d="m 37319,43348 v 787"
           inkscape:connector-curvature="0" />
        <path
           id="path4882"
           d="m 36728,44824 h -984"
           inkscape:connector-curvature="0" />
        <path
           id="path4884"
           d="m 35153,43348 v 787"
           inkscape:connector-curvature="0" />
        <path
           id="path4886"
           d="m 36905,42836 -177,-177"
           inkscape:connector-curvature="0" />
        <path
           id="path4888"
           d="m 35567,42836 177,-177"
           inkscape:connector-curvature="0" />
        <path
           id="path4890"
           d="m 35567,44647 177,177"
           inkscape:connector-curvature="0" />
        <path
           id="path4892"
           d="m 36905,44647 -177,177"
           inkscape:connector-curvature="0" />
      </g>
      <g
         id="g5016"
         style="fill:#000000;fill-opacity:0;stroke:#000000;stroke-width:47.24409866;stroke-linecap:round;stroke-linejoin:round;stroke-opacity:1">
        <path
           id="path4928"
           d="m 74838,55303 v 523"
           inkscape:connector-curvature="0" />
        <path
           id="path4930"
           d="m 74838,55826 h 524"
           inkscape:connector-curvature="0" />
        <path
           id="path4932"
           d="m 75862,55826 h 4023"
           inkscape:connector-curvature="0" />
        <path
           id="path4934"
           d="m 79885,54779 v 1047"
           inkscape:connector-curvature="0" />
        <path
           id="path4936"
           d="m 75862,54779 h 4023"
           inkscape:connector-curvature="0" />
        <path
           id="path4938"
           d="m 75862,54779 v 1047"
           inkscape:connector-curvature="0" />
      </g>
      <g
         id="g5424"
         style="fill:#000000;fill-opacity:0;stroke:#000000;stroke-width:47.24409866;stroke-linecap:round;stroke-linejoin:round;stroke-opacity:1">
        <path
           id="path5408"
           d="m 84173,55823 v -523"
           inkscape:connector-curvature="0" />
        <path
           id="path5410"
           d="m 83650,55823 h 523"
           inkscape:connector-curvature="0" />
        <path
           id="path5412"
           d="M 83150,55823 V 54776"
           inkscape:connector-curvature="0" />
        <path
           id="path5414"
           d="M 83150,54776 H 82126"
           inkscape:connector-curvature="0" />
        <path
           id="path5416"
           d="M 83150,55823 H 82126"
           inkscape:connector-curvature="0" />
        <path
           id="path5418"
           d="M 82126,55823 V 54776"
           inkscape:connector-curvature="0" />
      </g>
      <g
         id="g6088"
         style="fill:#000000;fill-opacity:0;stroke:#000000;stroke-width:59.05509949;stroke-linecap:round;stroke-linejoin:round;stroke-opacity:1">
        <path
           id="path5486"
           d="m 34978,45809 h -394"
           inkscape:connector-curvature="0" />
        <path
           id="path5488"
           d="m 34978,46034 -225,-169"
           inkscape:connector-curvature="0" />
        <path
           id="path5490"
           d="m 34584,46034 225,-225"
           inkscape:connector-curvature="0" />
        <path
           id="path5492"
           d="m 34621,46184 -18,19 -19,37 v 94 l 19,37 18,19 38,19 h 37 l 57,-19 225,-225 v 244"
           inkscape:connector-curvature="0" />
        <path
           id="path5494"
           d="m 35028,43409 h -394"
           inkscape:connector-curvature="0" />
        <path
           id="path5496"
           d="m 35028,43634 -225,-169"
           inkscape:connector-curvature="0" />
        <path
           id="path5498"
           d="m 34634,43634 225,-225"
           inkscape:connector-curvature="0" />
        <path
           id="path5500"
           d="m 35028,44009 v -225"
           inkscape:connector-curvature="0" />
        <path
           id="path5502"
           d="m 35028,43896 h -394 l 56,-37 38,-38 18,-37"
           inkscape:connector-curvature="0" />
        <g
           id="g6086" />
      </g>
    </g>
    <g
       id="g7667"
       transform="matrix(0.00254,0,0,0.00254,-179.6771,133.14905)">
      <g
         id="g6888"
         style="fill:#000000;fill-opacity:1;stroke:#000000;stroke-linecap:round;stroke-linejoin:round;stroke-opacity:1" />
      <g
         id="g6890"
         style="fill:#000000;fill-opacity:0;stroke:#000000;stroke-width:-0.0003937;stroke-linecap:round;stroke-linejoin:round;stroke-opacity:1" />
      <g
         id="g7400"
         style="fill:#000000;fill-opacity:0;stroke:#000000;stroke-width:39.01570129;stroke-linecap:round;stroke-linejoin:round;stroke-opacity:1">
        <path
           id="path6900"
           d="m 24524,26228.4 a 787.402,787.402 0 0 1 787,-787.4"
           inkscape:connector-curvature="0" />
        <path
           id="path6902"
           d="m 25311,62685.1 a 787.402,787.402 0 0 1 -787,-787.4"
           inkscape:connector-curvature="0" />
        <path
           id="path6904"
           d="m 131159,25440 h 4783"
           inkscape:connector-curvature="0" />
        <path
           id="path6906"
           d="m 135941,25440.9 a 786.969,786.969 0 0 1 787,787"
           inkscape:connector-curvature="0" />
        <path
           id="path6908"
           d="m 136727.9,61898.1 a 787.008,787.008 0 0 1 -787,787"
           inkscape:connector-curvature="0" />
        <path
           id="path6910"
           d="M 136728,61898 V 26227"
           inkscape:connector-curvature="0" />
        <path
           id="path6912"
           d="M 25312,62685 H 135941"
           inkscape:connector-curvature="0" />
        <path
           id="path6914"
           d="M 24524,26228 V 61897"
           inkscape:connector-curvature="0" />
        <path
           id="path6916"
           d="m 131159,25440 -105847,1"
           inkscape:connector-curvature="0" />
        <g
           id="g6918" />
        <g
           id="g6920" />
        <g
           id="g6922" />
        <g
           id="g6924" />
        <g
           id="g6926" />
        <g
           id="g6928" />
        <g
           id="g6930" />
        <g
           id="g6932" />
        <g
           id="g6934" />
        <g
           id="g6936" />
        <g
           id="g6938" />
        <g
           id="g6940" />
        <g
           id="g6942" />
        <g
           id="g6944" />
        <g
           id="g6946" />
        <g
           id="g6948" />
        <g
           id="g6950" />
        <g
           id="g6952" />
        <g
           id="g6954" />
        <g
           id="g6956" />
        <g
           id="g6958" />
        <g
           id="g6960" />
        <g
           id="g6962" />
        <g
           id="g6964" />
        <g
           id="g6966" />
        <g
           id="g6968" />
        <g
           id="g6970" />
        <g
           id="g6972" />
        <g
           id="g6974" />
        <g
           id="g6976" />
        <g
           id="g6978" />
        <g
           id="g6980" />
        <g
           id="g6982" />
        <g
           id="g6984" />
        <g
           id="g6986" />
        <g
           id="g6988" />
        <g
           id="g6990" />
        <g
           id="g6992" />
        <g
           id="g6994" />
        <g
           id="g6996" />
        <g
           id="g6998" />
        <g
           id="g7000" />
        <g
           id="g7002" />
        <g
           id="g7004" />
        <g
           id="g7006" />
        <g
           id="g7008" />
        <g
           id="g7010" />
        <g
           id="g7012" />
        <g
           id="g7014" />
        <g
           id="g7016" />
        <g
           id="g7018" />
        <g
           id="g7020" />
        <g
           id="g7022" />
        <g
           id="g7024" />
        <g
           id="g7026" />
        <g
           id="g7028" />
        <g
           id="g7030" />
        <g
           id="g7032" />
        <g
           id="g7034" />
        <g
           id="g7036" />
        <g
           id="g7038" />
        <g
           id="g7040" />
        <g
           id="g7042" />
        <g
           id="g7044" />
        <g
           id="g7046" />
        <g
           id="g7048" />
        <g
           id="g7050" />
        <g
           id="g7052" />
        <g
           id="g7054" />
        <g
           id="g7056" />
        <g
           id="g7058" />
        <g
           id="g7060" />
        <g
           id="g7062" />
        <g
           id="g7064" />
        <g
           id="g7066" />
        <g
           id="g7068" />
        <g
           id="g7070" />
        <g
           id="g7072" />
        <g
           id="g7074" />
        <g
           id="g7076" />
        <g
           id="g7078" />
        <g
           id="g7080" />
        <g
           id="g7082" />
        <g
           id="g7084" />
        <g
           id="g7086" />
        <g
           id="g7088" />
        <g
           id="g7090" />
        <g
           id="g7092" />
        <g
           id="g7094" />
        <g
           id="g7096" />
        <g
           id="g7098" />
        <g
           id="g7100" />
        <g
           id="g7102" />
        <g
           id="g7104" />
        <g
           id="g7106" />
        <g
           id="g7108" />
        <g
           id="g7110" />
        <g
           id="g7112" />
        <g
           id="g7114" />
        <g
           id="g7116" />
        <g
           id="g7118" />
        <g
           id="g7120" />
        <g
           id="g7122" />
        <g
           id="g7124" />
        <g
           id="g7126" />
        <g
           id="g7128" />
        <g
           id="g7130" />
        <g
           id="g7132" />
        <g
           id="g7134" />
        <g
           id="g7136" />
        <g
           id="g7138" />
        <g
           id="g7140" />
        <g
           id="g7142" />
        <g
           id="g7144" />
        <g
           id="g7146" />
        <g
           id="g7148" />
        <g
           id="g7150" />
        <g
           id="g7152" />
        <g
           id="g7154" />
        <g
           id="g7156" />
        <g
           id="g7158" />
        <g
           id="g7160" />
        <g
           id="g7162" />
        <g
           id="g7164" />
        <g
           id="g7166" />
        <g
           id="g7168" />
        <g
           id="g7170" />
        <g
           id="g7172" />
        <g
           id="g7174" />
        <g
           id="g7176" />
        <g
           id="g7178" />
        <g
           id="g7180" />
        <g
           id="g7182" />
        <g
           id="g7184" />
        <g
           id="g7186" />
        <g
           id="g7188" />
        <g
           id="g7190" />
        <g
           id="g7192" />
        <g
           id="g7194" />
        <g
           id="g7196" />
        <g
           id="g7198" />
        <g
           id="g7200" />
        <g
           id="g7202" />
        <g
           id="g7204" />
        <g
           id="g7206" />
        <g
           id="g7208" />
        <g
           id="g7210" />
        <g
           id="g7212" />
        <g
           id="g7214" />
        <g
           id="g7216" />
        <g
           id="g7218" />
        <g
           id="g7220" />
        <g
           id="g7222" />
        <g
           id="g7224" />
        <g
           id="g7226" />
        <g
           id="g7228" />
        <g
           id="g7230" />
        <g
           id="g7232" />
        <g
           id="g7234" />
        <g
           id="g7236" />
        <g
           id="g7238" />
        <g
           id="g7240" />
        <g
           id="g7242" />
        <g
           id="g7244" />
        <g
           id="g7246" />
        <g
           id="g7248" />
        <g
           id="g7250" />
        <g
           id="g7252" />
        <g
           id="g7254" />
        <g
           id="g7256" />
        <g
           id="g7258" />
        <g
           id="g7260" />
        <g
           id="g7262" />
        <g
           id="g7264" />
        <g
           id="g7266" />
        <g
           id="g7268" />
        <g
           id="g7270" />
        <g
           id="g7272" />
        <g
           id="g7274" />
        <g
           id="g7276" />
        <g
           id="g7278" />
        <g
           id="g7280" />
        <g
           id="g7282" />
        <g
           id="g7284" />
        <g
           id="g7286" />
        <g
           id="g7288" />
        <g
           id="g7290" />
        <g
           id="g7292" />
        <g
           id="g7294" />
        <g
           id="g7296" />
        <g
           id="g7298" />
        <g
           id="g7300" />
        <g
           id="g7302" />
        <g
           id="g7304" />
        <g
           id="g7306" />
        <g
           id="g7308" />
        <g
           id="g7310" />
        <g
           id="g7312" />
        <g
           id="g7314" />
        <g
           id="g7316" />
        <g
           id="g7318" />
        <g
           id="g7320" />
        <g
           id="g7322" />
        <g
           id="g7324" />
        <g
           id="g7326" />
        <g
           id="g7328" />
        <g
           id="g7330" />
        <g
           id="g7332" />
        <g
           id="g7334" />
        <g
           id="g7336" />
        <g
           id="g7338" />
        <g
           id="g7340" />
        <g
           id="g7342" />
        <g
           id="g7344" />
        <g
           id="g7346" />
        <g
           id="g7348" />
        <g
           id="g7350" />
        <g
           id="g7352" />
        <g
           id="g7354" />
        <g
           id="g7356" />
        <g
           id="g7358" />
        <g
           id="g7360" />
        <g
           id="g7362" />
        <g
           id="g7364" />
        <g
           id="g7366" />
        <g
           id="g7368" />
        <g
           id="g7370" />
        <g
           id="g7372" />
        <g
           id="g7374" />
        <g
           id="g7376" />
        <g
           id="g7378" />
        <g
           id="g7380" />
        <g
           id="g7382" />
        <g
           id="g7384" />
        <g
           id="g7386" />
        <g
           id="g7388" />
        <g
           id="g7390" />
        <g
           id="g7392" />
        <g
           id="g7394" />
        <g
           id="g7396" />
        <g
           id="g7398" />
      </g>
    </g>
    <rect
       style="fill:none;fill-opacity:1;stroke:#000000;stroke-width:0.26458332;stroke-opacity:1"
       id="rect7675"
       width="3.817601"
       height="1.8871148"
       x="133.36885"
       y="198.46162" />
    <rect
       style="fill:none;fill-opacity:1;stroke:#000000;stroke-width:0.26458332;stroke-opacity:1"
       id="rect7677"
       width="3.8202465"
       height="1.8871148"
       x="147.58998"
       y="198.46162" />
    <rect
       style="fill:none;fill-opacity:1;stroke:#000000;stroke-width:0.26458332;stroke-opacity:1"
       id="rect7679"
       width="8.4189901"
       height="6.1471992"
       x="138.41089"
       y="197.29103" />
    <rect
       style="fill:none;fill-opacity:1;stroke:#000000;stroke-width:0.26458332;stroke-opacity:1"
       id="rect7681"
       width="2.1208999"
       height="4.1198802"
       x="8.2662573"
       y="214.11041" />
    <rect
       style="fill:none;fill-opacity:1;stroke:#000000;stroke-width:0.26458332;stroke-opacity:1"
       id="rect7683"
       width="5.1993799"
       height="2.65938"
       x="9.8385172"
       y="272.3551" />
    <rect
       style="fill:none;fill-opacity:1;stroke:#000000;stroke-width:0.26458332;stroke-opacity:1"
       id="rect7685"
       width="12.81938"
       height="2.65938"
       x="20.730034"
       y="272.36273" />
    <text
       xml:space="preserve"
       style="font-style:normal;font-variant:normal;font-weight:normal;font-stretch:normal;font-size:3.88055563px;line-height:1.25;font-family:Roboto;-inkscape-font-specification:Roboto;letter-spacing:0px;word-spacing:0px;fill:#000000;fill-opacity:1;stroke:none;stroke-width:0.26458332"
       x="14.873356"
       y="217.73836"
       id="text7707"><tspan
         sodipodi:role="line"
         id="tspan7705"
         x="14.873356"
         y="217.73836"
         style="stroke-width:0.26458332">1</tspan></text>
    <circle
       style="fill:none;fill-opacity:1;stroke:#000000;stroke-width:0.26458332;stroke-opacity:1"
       id="path7709"
       cx="16.092714"
       cy="216.2504"
       r="2.80633" />
    <text
       xml:space="preserve"
       style="font-style:normal;font-variant:normal;font-weight:normal;font-stretch:normal;font-size:3.88055563px;line-height:1.25;font-family:Roboto;-inkscape-font-specification:Roboto;letter-spacing:0px;word-spacing:0px;fill:#000000;fill-opacity:1;stroke:none;stroke-width:0.26458332"
       x="10.834627"
       y="265.94119"
       id="text7707-5"><tspan
         sodipodi:role="line"
         id="tspan7705-5"
         x="10.834627"
         y="265.94119"
         style="stroke-width:0.26458332">1</tspan></text>
    <circle
       style="fill:none;fill-opacity:1;stroke:#000000;stroke-width:0.26458332;stroke-opacity:1"
       id="path7709-4"
       cx="12.053988"
       cy="264.45319"
       r="2.80633" />
    <text
       xml:space="preserve"
       style="font-style:normal;font-variant:normal;font-weight:normal;font-stretch:normal;font-size:3.88055563px;line-height:1.25;font-family:Roboto;-inkscape-font-specification:Roboto;letter-spacing:0px;word-spacing:0px;fill:#000000;fill-opacity:1;stroke:none;stroke-width:0.26458332"
       x="25.940731"
       y="266.06409"
       id="text7707-0"><tspan
         sodipodi:role="line"
         id="tspan7705-2"
         x="25.940731"
         y="266.06409"
         style="stroke-width:0.26458332">2</tspan></text>
    <circle
       style="fill:none;fill-opacity:1;stroke:#000000;stroke-width:0.26458332;stroke-opacity:1"
       id="path7709-8"
       cx="27.160095"
       cy="264.57608"
       r="2.80633" />
    <text
       xml:space="preserve"
       style="font-style:normal;font-variant:normal;font-weight:normal;font-stretch:normal;font-size:3.88055563px;line-height:1.25;font-family:Roboto;-inkscape-font-specification:Roboto;letter-spacing:0px;word-spacing:0px;fill:#000000;fill-opacity:1;stroke:none;stroke-width:0.26458332"
       x="132.44762"
       y="206.61278"
       id="text7707-00"><tspan
         sodipodi:role="line"
         id="tspan7705-0"
         x="132.44762"
         y="206.61278"
         style="stroke-width:0.26458332">3</tspan></text>
    <circle
       style="fill:none;fill-opacity:1;stroke:#000000;stroke-width:0.26458332;stroke-opacity:1"
       id="path7709-9"
       cx="133.66695"
       cy="205.12482"
       r="2.80633" />
    <text
       xml:space="preserve"
       style="font-style:normal;font-variant:normal;font-weight:normal;font-stretch:normal;font-size:3.88055563px;line-height:1.25;font-family:Roboto;-inkscape-font-specification:Roboto;letter-spacing:0px;word-spacing:0px;fill:#000000;fill-opacity:1;stroke:none;stroke-width:0.26458332"
       x="141.30504"
       y="208.91682"
       id="text7707-9"><tspan
         sodipodi:role="line"
         id="tspan7705-54"
         x="141.30504"
         y="208.91682"
         style="stroke-width:0.26458332">4</tspan></text>
    <circle
       style="fill:none;fill-opacity:1;stroke:#000000;stroke-width:0.26458332;stroke-opacity:1"
       id="path7709-1"
       cx="142.52437"
       cy="207.42879"
       r="2.80633" />
    <text
       xml:space="preserve"
       style="font-style:normal;font-variant:normal;font-weight:normal;font-stretch:normal;font-size:3.88055563px;line-height:1.25;font-family:Roboto;-inkscape-font-specification:Roboto;letter-spacing:0px;word-spacing:0px;fill:#000000;fill-opacity:1;stroke:none;stroke-width:0.26458332"
       x="150.13019"
       y="206.74107"
       id="text7707-58"><tspan
         sodipodi:role="line"
         id="tspan7705-29"
         x="150.13019"
         y="206.74107"
         style="stroke-width:0.26458332">5</tspan></text>
    <circle
       style="fill:none;fill-opacity:1;stroke:#000000;stroke-width:0.26458332;stroke-opacity:1"
       id="path7709-0"
       cx="151.34955"
       cy="205.25307"
       r="2.80633" />
    <text
       xml:space="preserve"
       style="font-style:normal;font-variant:normal;font-weight:normal;font-stretch:normal;font-size:3.88055563px;line-height:1.25;font-family:Roboto;-inkscape-font-specification:Roboto;letter-spacing:0px;word-spacing:0px;fill:#000000;fill-opacity:1;stroke:none;stroke-width:0.26458332"
       x="110.2428"
       y="234.51013"
       id="text7707-8"><tspan
         sodipodi:role="line"
         id="tspan7705-3"
         x="110.2428"
         y="234.51013"
         style="stroke-width:0.26458332">6</tspan></text>
    <circle
       style="fill:none;fill-opacity:1;stroke:#000000;stroke-width:0.26458332;stroke-opacity:1"
       id="path7709-7"
       cx="111.46214"
       cy="233.02213"
       r="2.80633" />
    <text
       xml:space="preserve"
       style="font-style:normal;font-variant:normal;font-weight:normal;font-stretch:normal;font-size:3.88055563px;line-height:1.25;font-family:Roboto;-inkscape-font-specification:Roboto;letter-spacing:0px;word-spacing:0px;fill:#000000;fill-opacity:1;stroke:none;stroke-width:0.26458332"
       x="139.72208"
       y="245.68166"
       id="text7707-2"><tspan
         sodipodi:role="line"
         id="tspan7705-9"
         x="139.72208"
         y="245.68166"
         style="stroke-width:0.26458332">7</tspan></text>
    <circle
       style="fill:none;fill-opacity:1;stroke:#000000;stroke-width:0.26458332;stroke-opacity:1"
       id="path7709-6"
       cx="140.94144"
       cy="244.19365"
       r="2.80633" />
    <text
       xml:space="preserve"
       style="font-style:normal;font-variant:normal;font-weight:normal;font-stretch:normal;font-size:3.88055563px;line-height:1.25;font-family:Roboto;-inkscape-font-specification:Roboto;letter-spacing:0px;word-spacing:0px;fill:#000000;fill-opacity:1;stroke:none;stroke-width:0.26458332"
       x="139.69064"
       y="252.42258"
       id="text7707-589"><tspan
         sodipodi:role="line"
         id="tspan7705-27"
         x="139.69064"
         y="252.42258"
         style="stroke-width:0.26458332">8</tspan></text>
    <circle
       style="fill:none;fill-opacity:1;stroke:#000000;stroke-width:0.26458332;stroke-opacity:1"
       id="path7709-83"
       cx="140.91003"
       cy="250.93456"
       r="2.80633" />
  </g>
</svg>
